<svg width="720" height="1344" viewBox="0 0 720 1344" fill="none" xmlns="http://www.w3.org/2000/svg">
<path d="M719.706 0V222.65L680.307 149.106V0H679.584L679.707 0.2296V147.98L640.307 74.4352V0H639.707V74.4352L600.308 147.98V0H359.706V74.4352L320.307 147.98V0H319.584L280.307 73.3152V0H279.707V74.4352L240.308 147.98V0H0V224.56H119.278L79.8787 298.105H0V299.454L0.123001 299.225H79.2757L39.8763 372.77H0V373.89H39.8763L79.2757 447.434H0V448.554H79.2757L39.8763 522.099H0V523.219H39.2763L0 596.54V597.89H79.2757L39.8763 671.434H0V1343.99H240.302V1196.01L279.701 1269.56V1343.99H280.301V1269.56L319.701 1196.01V1343.76L319.578 1343.99H320.301V1194.89L359.7 1121.35V1344H600.302V1269.56L600.425 1269.34L600.302 1269.11V1196.02L639.701 1269.56V1344H640.301V1270.68L679.578 1344H680.301V1196.02L719.7 1269.56V1344H720V671.44H600.722L640.121 597.895H719.997V596.546L719.874 596.775H640.721L680.121 523.23H719.997V522.11H680.121L640.721 448.566H719.997V447.446H640.721L680.121 373.901H719.997V372.781H680.721L719.997 299.466V298.116H640.721L680.121 224.571H719.997V0H719.697H719.706ZM640.004 75.46L679.704 149.565V223.44H600.302V149.565L640.001 75.46H640.004ZM680.304 150.685L719.28 223.44H680.304V150.685ZM440.128 1268.78L400.728 1195.23H479.881L519.28 1268.78H440.128ZM280.727 1119.44L320.127 1045.9H399.879L439.279 1119.44H280.727ZM199.877 1268.78H120.724L160.123 1195.23H239.276L199.877 1268.78ZM40.2993 821.565L79.6987 748.02V895.77L40.2993 969.315V821.565ZM119.275 672.56L80.2987 745.315V672.56H119.275ZM120.301 522.435V373.565L159.7 300.02V597.106L120.301 670.65V522.9L120.424 522.67L120.301 522.441V522.435ZM239.279 148.775H160.126L120.727 75.2304H199.88L239.279 148.775ZM400.128 75.2304H479.281L439.882 148.775H360.729L400.128 75.2304ZM599.882 747.23L639.281 820.775H560.129L520.729 747.23H599.882ZM559.583 821.335L519.883 895.44H480.307V747.225H519.883L559.583 821.33V821.335ZM599.708 1194.9V1267.99L520.732 1120.57H599.708V1194.44L599.585 1194.67L599.708 1194.9ZM440.131 1119.44L400.431 1045.34L440.131 971.23H479.707V1119.45H440.131V1119.44ZM399.882 1044.78H320.73L360.129 971.23H439.282L399.882 1044.78ZM80.1277 1194.11L40.7283 1120.57H199.28L159.88 1194.11H80.1277ZM119.704 972.02V1119.44H40.7283L119.704 972.02ZM360.303 150.685L399.279 223.44H360.303V150.685ZM519.88 149.895L559.28 223.44H400.728L440.128 149.895H519.88ZM599.705 373.565V522.435L560.306 595.98V298.894L599.705 225.35V373.1L599.582 373.33L599.705 373.559V373.565ZM440.728 970.105L479.704 897.35V970.105H440.728ZM280.727 970.105L320.127 896.56H360.303H479.281L439.882 970.105H280.727ZM200.303 1119.44V1046.68L239.279 1119.44H200.303ZM239.702 1120.56V1193.32L200.726 1120.56H239.702ZM199.703 1119.44H120.301V1045.56L160 971.46L199.7 1045.56V1119.44H199.703ZM200.303 373.565L239.702 300.02V447.44V595.98L200.303 522.435V373.565ZM280.004 224.79L280.127 224.56H399.879L439.279 298.105H280.124L240.725 224.56H279.878L280.001 224.79H280.004ZM520.306 670.645V522.894L559.706 449.35V597.1L520.306 670.645ZM159.703 970.43L120.304 1043.97V748.009L159.703 821.554V970.424V970.43ZM159.28 672.554L120.304 745.31V672.554H159.28ZM120.43 746.659L159.706 673.344V819.974L120.43 746.659ZM240.308 671.434V524.014L279.707 597.559V746.43L240.308 819.974V671.434ZM279.284 298.099H240.308V225.344L279.284 298.099ZM240.308 299.219H279.884L319.584 373.324L279.884 447.429H240.308V299.214V299.219ZM519.709 522.43L480.31 595.974V373.559L480.433 373.33L480.31 373.1V300.014L519.709 373.559V522.43ZM519.709 670.645L480.433 597.33L519.709 524.014V670.645ZM479.71 894.645L440.311 821.1V524.014L479.587 597.33L479.71 597.559V671.434V894.639V894.645ZM320.133 373.89H399.885L439.285 447.434H400.134L400.011 447.205L399.888 447.434H359.712H280.736L320.136 373.89H320.133ZM439.711 670.645L400.311 597.1V449.35L439.711 522.894V670.645ZM320.31 522.894L359.709 449.35V522.43L359.586 522.659L359.709 522.889V671.989V746.424L320.31 819.969V522.883V522.894ZM359.286 448.554L320.31 521.31V448.554H359.286ZM359.709 748.014V895.434H280.733L359.709 748.014ZM360.309 448.554H399.285L360.309 521.31V448.554ZM399.708 449.344V595.974L360.432 522.659L399.708 449.344ZM400.734 448.554H439.885L440.008 448.784L440.131 448.554H479.707V595.974L400.731 448.554H400.734ZM440.734 447.434L479.71 374.679V447.434H440.734ZM440.008 447.205L400.731 373.89H479.284L440.008 447.205ZM319.707 448.554V522.43L280.007 596.534L240.308 522.43V448.554H319.71H319.707ZM280.307 597.559L319.707 524.014V671.765L280.307 745.31V597.559ZM319.707 673.344V821.094L280.307 894.639V746.889L319.707 673.344ZM279.707 894.639L240.431 821.324L279.707 748.009V894.639ZM279.284 895.429H240.308V822.674L279.284 895.429ZM360.309 671.989V524.009L399.708 597.554V746.424L360.309 819.969V671.989ZM400.308 598.674L439.708 672.218V819.969L400.308 746.424V598.674ZM479.71 224.549V371.969L400.734 224.549H479.71ZM479.287 372.764H400.134L360.735 299.219H439.888L479.287 372.764ZM359.886 299.219L399.285 372.764H320.133L280.733 299.219H359.886ZM360.309 821.559L400.008 747.454L439.708 821.559V895.434H360.306V821.559H360.309ZM440.311 822.679L479.287 895.434H440.311V822.679ZM480.31 598.679L519.286 671.434H480.31V598.679ZM559.712 447.759L520.312 521.304V373.554L559.712 300.009V447.759ZM520.012 372.534L480.313 298.43V224.554H559.715V298.43L520.015 372.534H520.012ZM239.711 297.31L200.735 224.554H239.711V297.31ZM200.312 225.35L239.588 298.665L200.312 371.98V225.35ZM160.312 970.43V822.679L199.712 896.224V1043.97L160.312 970.43ZM199.712 894.645L160.312 821.1V673.35L199.712 746.894V894.645ZM160.735 672.554H239.711V819.974L160.735 672.554ZM279.887 896.554L280.01 896.784L280.133 896.554H319.284L240.308 1043.97V896.554H279.884H279.887ZM520.738 671.434L599.714 524.014V671.434H520.738ZM560.315 297.31V224.554H599.291L560.315 297.31ZM400.014 223.205L360.738 149.89H439.291L400.014 223.205ZM200.738 223.434L239.714 150.679V223.434H200.738ZM200.015 223.205L160.738 149.89H239.291L200.015 223.205ZM199.292 224.554L120.316 371.974V224.554H199.292ZM199.715 225.344V373.094L160.315 446.639V298.889L199.715 225.344ZM160.315 448.224L199.715 374.679V522.43L160.315 595.974V448.224ZM200.015 523.449L239.714 597.554V671.429H160.312V597.554L200.012 523.449H200.015ZM159.715 671.429H120.739L159.715 598.674V671.429ZM200.015 1120.78L239.291 1194.09H160.738L200.015 1120.78ZM200.315 1045.09V748.009L239.591 821.324L239.714 821.554V896.549V1045.09L239.591 1045.32L239.714 1045.55V1118.63L200.315 1045.09ZM240.74 1044.76L280.139 971.214H359.292L319.893 1044.76H240.74ZM319.293 1045.88L280.016 1119.19L240.74 1045.88H319.293ZM480.319 1119.42V972.003L559.295 1119.42H480.319ZM480.742 971.208H559.895L599.294 1044.75H520.141L480.742 971.208ZM480.742 970.088L520.018 896.773L559.295 970.088H480.742ZM480.319 969.298V896.543H519.295L480.319 969.298ZM480.319 746.088V673.333L519.295 746.088H480.319ZM599.705 74.1048H560.729L599.705 1.3496V74.1048ZM599.705 75.2248V223.44H560.129L520.429 149.335L560.129 75.2304H599.705V75.2248ZM519.88 148.77H440.728L480.127 75.2248H559.28L519.88 148.77ZM240.302 223.434V150.679L279.278 223.434H240.302ZM119.878 75.2248L159.277 148.77H80.1247L40.7253 75.2248H119.878ZM80.1247 149.89H159.877L199.277 223.434H40.7253L80.1247 149.89ZM119.701 673.35V746.435L119.578 746.665L119.701 746.894V970.43L80.3017 1043.97V746.889L119.701 673.344V673.35ZM79.7017 897.35V1045.1L40.3023 1118.64V970.894L79.7017 897.35ZM39.7023 1118.64L0.423004 1045.34L39.6993 972.02V1118.65L39.7023 1118.64ZM79.5787 1194.66L39.8793 1268.77H0.300003V1120.55H39.8763L79.5757 1194.66L79.5787 1194.66ZM80.1277 1195.22H159.28L119.881 1268.77H40.7253L80.1247 1195.22H80.1277ZM240.305 1046.68L279.281 1119.44H240.305V1046.68ZM360.306 1121.35L399.282 1194.1H360.306V1121.35ZM360.729 1120.56H479.707H519.883L559.283 1194.1H400.131L360.732 1120.56H360.729ZM480.73 1195.22H559.883L599.282 1268.77H520.129L480.73 1195.22ZM599.282 1269.89L560.006 1343.2L520.729 1269.89H599.282ZM640.13 1119.43L640.007 1119.2L639.884 1119.43H560.132L520.732 1045.89H679.887L719.286 1119.43H640.133H640.13ZM600.131 1044.77L560.732 971.225H639.884L679.284 1044.77H600.131ZM639.884 970.105H560.132L520.732 896.56H679.284L639.884 970.105ZM520.732 895.44L560.132 821.895H639.884L679.284 895.44H520.729H520.732ZM640.733 821.895H719.286L680.01 895.21L640.733 821.895ZM640.133 820.775L600.734 747.23H679.887L719.286 820.775H640.133ZM520.132 746.11L480.733 672.566H519.886L520.009 672.795L520.132 672.566H639.884L679.284 746.11H520.132ZM559.886 74.1104H400.731L440.128 0.56H599.282L559.883 74.1048L559.886 74.1104ZM439.279 0.56L360.303 147.98V0.56H439.279ZM359.703 149.1L359.58 149.33L359.703 149.559V223.434H280.727L359.703 76.0144V149.1ZM319.704 1.3496V149.1L280.304 222.645V74.9L319.704 1.3496ZM279.704 76.0144V222.645L240.428 149.33L279.704 76.0144ZM239.702 0.56V147.98L160.726 0.56H239.702ZM159.877 0.56L199.277 74.1048H40.1253L0.723006 0.56H159.874H159.877ZM39.2763 74.1048H0.300003V1.3496L39.2763 74.1048ZM0.300003 75.2248H39.8763L79.5757 149.33L39.8763 223.434H0.300003V75.2248ZM119.701 225.35V298.105H80.7247L119.701 225.35ZM80.1247 299.225H119.701V447.44H80.1247L80.0017 447.21L40.4253 373.335L80.1247 299.23V299.225ZM119.701 448.56V521.315L80.7247 448.56H119.701ZM80.0017 448.79L119.278 522.105H40.7253L80.0017 448.79ZM0.723006 596.775L40.1223 523.23H119.275L79.8757 596.775H0.723006ZM119.701 524.02V671.44H40.7253L119.701 524.02ZM79.7017 672.56V746.435L40.0023 820.54L0.300003 746.435V672.56H79.7017ZM0.300003 748.02L39.6993 821.565V970.435L0.300003 1043.98V748.014V748.02ZM39.2763 1119.44H0.300003V1046.68L39.2763 1119.44ZM0.300003 1269.9H39.2763L0.300003 1342.65V1269.9ZM40.1253 1269.9H199.277L159.877 1343.44H0.723006L40.1223 1269.9H40.1253ZM160.726 1343.44L239.702 1196.02V1343.44H160.726ZM280.004 1268.54L240.428 1194.66L240.305 1194.44V1120.56H279.881L280.004 1120.79L280.127 1120.56H319.704V1194.44L280.004 1268.54ZM320.304 1120.56H359.28L320.304 1193.32V1120.56ZM360.303 1195.22H399.879L439.579 1269.33L399.879 1343.43H360.303V1195.22V1195.22ZM400.728 1343.44L440.128 1269.9H519.88L559.28 1343.44H400.725H400.728ZM560.729 1343.44L599.705 1270.68V1343.44H560.729ZM600.305 1120.56H639.281L600.305 1193.32V1120.56ZM600.428 1194.66L639.704 1121.35V1267.98L600.428 1194.66ZM679.704 1342.64L640.304 1269.1V1121.35L679.704 1194.89V1342.64ZM719.703 1267.98L640.727 1120.56H719.703V1267.98ZM719.703 1118.65L680.727 1045.9H719.703V1118.65ZM680.127 1044.78L640.427 970.67L680.127 896.566H719.703V1044.78H680.127V1044.78ZM719.703 895.44H680.727L719.703 822.685V895.44ZM640.727 672.56H719.703V819.98L640.727 672.56ZM600.302 670.645V597.89H639.278L600.302 670.645ZM639.878 596.77H600.302V448.554H639.878L640.001 448.784L679.578 522.659L639.878 596.764V596.77ZM600.302 447.434V374.679L639.278 447.434H600.302ZM640.001 447.205L600.725 373.89H679.278L640.001 447.205ZM719.277 299.225L679.878 372.77H600.725L640.124 299.225H719.277ZM600.299 371.98V224.56H679.275L600.299 371.98Z" fill="url(#paint0_radial_1981_9673)" fill-opacity="0.1"/>
<defs>
<radialGradient id="paint0_radial_1981_9673" cx="0" cy="0" r="1" gradientUnits="userSpaceOnUse" gradientTransform="translate(349.341 672) scale(352.55 658.088)">
<stop offset="0.35" stop-color="#081021"/>
<stop offset="1" stop-color="#64748B" stop-opacity="0"/>
</radialGradient>
</defs>
</svg>
