<svg width="20" height="20" viewBox="0 0 20 20" fill="none" xmlns="http://www.w3.org/2000/svg">
<path d="M14.1666 11.6666V16.6666M11.6666 14.1666H16.6666M4.99998 8.33325H6.66665C7.58712 8.33325 8.33331 7.58706 8.33331 6.66659V4.99992C8.33331 4.07944 7.58712 3.33325 6.66665 3.33325H4.99998C4.07951 3.33325 3.33331 4.07944 3.33331 4.99992V6.66659C3.33331 7.58706 4.07951 8.33325 4.99998 8.33325ZM13.3333 8.33325H15C15.9205 8.33325 16.6666 7.58706 16.6666 6.66659V4.99992C16.6666 4.07944 15.9205 3.33325 15 3.33325H13.3333C12.4128 3.33325 11.6666 4.07944 11.6666 4.99992V6.66659C11.6666 7.58706 12.4128 8.33325 13.3333 8.33325ZM4.99998 16.6666H6.66665C7.58712 16.6666 8.33331 15.9204 8.33331 14.9999V13.3333C8.33331 12.4128 7.58712 11.6666 6.66665 11.6666H4.99998C4.07951 11.6666 3.33331 12.4128 3.33331 13.3333V14.9999C3.33331 15.9204 4.07951 16.6666 4.99998 16.6666Z" stroke="#001210" stroke-width="1.5" stroke-linecap="round" stroke-linejoin="round"/>
</svg>
